<?xml version="1.0" encoding="UTF-8" standalone="no"?>
<!-- Created with Inkscape (http://www.inkscape.org/) -->

<svg
   version="1.1"
   id="svg10927"
   width="3.5in"
   height="2.4999998in"
   viewBox="0 0 336 239.99997"
   sodipodi:docname="polarization.svg"
   inkscape:version="1.2.2 (b0a8486541, 2022-12-01)"
   xmlns:inkscape="http://www.inkscape.org/namespaces/inkscape"
   xmlns:sodipodi="http://sodipodi.sourceforge.net/DTD/sodipodi-0.dtd"
   xmlns="http://www.w3.org/2000/svg"
   xmlns:svg="http://www.w3.org/2000/svg">
  <defs
     id="defs10931" />
  <sodipodi:namedview
     id="namedview10929"
     pagecolor="#ffffff"
     bordercolor="#666666"
     borderopacity="1.0"
     inkscape:showpageshadow="2"
     inkscape:pageopacity="0.0"
     inkscape:pagecheckerboard="0"
     inkscape:deskcolor="#d1d1d1"
     showgrid="false"
     inkscape:zoom="0.98333338"
     inkscape:cx="312.20338"
     inkscape:cy="119.99999"
     inkscape:window-width="2256"
     inkscape:window-height="1420"
     inkscape:window-x="0"
     inkscape:window-y="0"
     inkscape:window-maximized="1"
     inkscape:current-layer="g10937"
     inkscape:document-units="in">
    <inkscape:page
       x="0"
       y="0"
       id="page10933"
       width="336"
       height="239.99997" />
  </sodipodi:namedview>
  <g
     id="g10935"
     inkscape:groupmode="layer"
     inkscape:label="Page 1"
     transform="matrix(1.3333333,0,0,1.3333333,0,6.6666664e-6)">
    <g
       id="g10937">
      <path
         d="m 135.45301,33.48 c 0,2.563 -2.082,4.645 -4.645,4.645 -2.566,0 -4.644,-2.082 -4.644,-4.645 0,-2.566 2.078,-4.644 4.644,-4.644 2.563,0 4.645,2.078 4.645,4.644 z"
         style="fill:#d40000;fill-opacity:1;fill-rule:nonzero;stroke:none"
         id="path11099" />
      <path
         d="m 127.48001,37.789 h 6.656 c 1.934,0 3.489,1.508 3.489,3.379 v 6.285 c 0,1.871 -1.555,3.379 -3.489,3.379 h -6.656 c -1.933,0 -3.488,-1.508 -3.488,-3.379 v -6.285 c 0,-1.871 1.555,-3.379 3.488,-3.379 z"
         style="fill:#d40000;fill-opacity:1;fill-rule:nonzero;stroke:none"
         id="path11101" />
      <path
         d="m 77.105006,63.949 c 0,2.563 -2.078,4.641 -4.64,4.641 -2.567,0 -4.645,-2.078 -4.645,-4.641 0,-2.566 2.078,-4.644 4.645,-4.644 2.562,0 4.64,2.078 4.64,4.644 z"
         style="fill:#80b3ff;fill-opacity:1;fill-rule:nonzero;stroke:none"
         id="path11103" />
      <path
         d="m 69.136006,68.258 h 6.657 c 1.929,0 3.488,1.504 3.488,3.375 v 6.289 c 0,1.871 -1.559,3.375 -3.488,3.375 h -6.657 c -1.933,0 -3.488,-1.504 -3.488,-3.375 v -6.289 c 0,-1.871 1.555,-3.375 3.488,-3.375 z"
         style="fill:#80b3ff;fill-opacity:1;fill-rule:nonzero;stroke:none"
         id="path11105" />
      <g
         id="g11107"
         transform="translate(-261.59399,1.5)">
        <path
           d="m 437.379,54.457 h 9.922 c 3.14,0 5.668,2.527 5.668,5.672 v 9.922 c 0,3.14 -2.528,5.668 -5.668,5.668 h -9.922 c -3.141,0 -5.672,-2.528 -5.672,-5.668 v -9.922 c 0,-3.145 2.531,-5.672 5.672,-5.672 z"
           style="fill:none;stroke:#000000;stroke-width:2.83465;stroke-linecap:round;stroke-linejoin:miter;stroke-miterlimit:4;stroke-dasharray:none;stroke-opacity:1"
           id="path11109" />
      </g>
      <g
         id="g11111"
         transform="translate(-261.59399,1.5)">
        <path
           d="m 436.324,65.09 h 12.031"
           style="fill:none;stroke:#000000;stroke-width:2.83465;stroke-linecap:butt;stroke-linejoin:miter;stroke-miterlimit:4;stroke-dasharray:none;stroke-opacity:1"
           id="path11113" />
      </g>
      <g
         id="g11115"
         transform="translate(-261.59399,1.5)">
        <path
           d="M 442.34,71.102 V 59.074"
           style="fill:none;stroke:#000000;stroke-width:2.83465;stroke-linecap:butt;stroke-linejoin:miter;stroke-miterlimit:4;stroke-dasharray:none;stroke-opacity:1"
           id="path11117" />
      </g>
      <g
         id="g11119"
         transform="translate(-261.59399,1.5)">
        <path
           d="m 421.492,126.988 h 9.926 c 3.141,0 5.668,2.532 5.668,5.672 v 9.922 c 0,3.141 -2.527,5.668 -5.668,5.668 h -9.926 c -3.14,0 -5.668,-2.527 -5.668,-5.668 v -9.922 c 0,-3.14 2.528,-5.672 5.668,-5.672 z"
           style="fill:none;stroke:#000000;stroke-width:2.83465;stroke-linecap:round;stroke-linejoin:miter;stroke-miterlimit:4;stroke-dasharray:none;stroke-opacity:1"
           id="path11121" />
      </g>
      <g
         id="g11123"
         transform="translate(-261.59399,1.5)">
        <path
           d="m 420.441,137.621 h 12.028"
           style="fill:none;stroke:#000000;stroke-width:2.83465;stroke-linecap:butt;stroke-linejoin:miter;stroke-miterlimit:4;stroke-dasharray:none;stroke-opacity:1"
           id="path11125" />
      </g>
      <g
         id="g11127"
         transform="translate(-261.59399,1.5)">
        <path
           d="m 324.504,114.832 h 9.922 c 3.14,0 5.668,2.527 5.668,5.672 v 9.922 c 0,3.14 -2.528,5.668 -5.668,5.668 h -9.922 c -3.141,0 -5.672,-2.528 -5.672,-5.668 v -9.922 c 0,-3.145 2.531,-5.672 5.672,-5.672 z"
           style="fill:none;stroke:#000000;stroke-width:2.83465;stroke-linecap:round;stroke-linejoin:miter;stroke-miterlimit:4;stroke-dasharray:none;stroke-opacity:1"
           id="path11129" />
      </g>
      <g
         id="g11131"
         transform="translate(-261.59399,1.5)">
        <path
           d="M 323.449,125.465 H 335.48"
           style="fill:none;stroke:#000000;stroke-width:2.83465;stroke-linecap:butt;stroke-linejoin:miter;stroke-miterlimit:4;stroke-dasharray:none;stroke-opacity:1"
           id="path11133" />
      </g>
      <g
         id="g11135"
         transform="translate(-261.59399,1.5)">
        <path
           d="M 329.465,131.477 V 119.449"
           style="fill:none;stroke:#000000;stroke-width:2.83465;stroke-linecap:butt;stroke-linejoin:miter;stroke-miterlimit:4;stroke-dasharray:none;stroke-opacity:1"
           id="path11137" />
      </g>
      <g
         id="g11139"
         transform="translate(-261.59399,1.5)">
        <path
           d="m 333.367,8.488 h 9.926 c 3.141,0 5.668,2.532 5.668,5.672 v 9.922 c 0,3.141 -2.527,5.668 -5.668,5.668 h -9.926 c -3.14,0 -5.668,-2.527 -5.668,-5.668 V 14.16 c 0,-3.14 2.528,-5.672 5.668,-5.672 z"
           style="fill:none;stroke:#000000;stroke-width:2.83465;stroke-linecap:round;stroke-linejoin:miter;stroke-miterlimit:4;stroke-dasharray:none;stroke-opacity:1"
           id="path11141" />
      </g>
      <g
         id="g11143"
         transform="translate(-261.59399,1.5)">
        <path
           d="m 332.316,19.121 h 12.028"
           style="fill:none;stroke:#000000;stroke-width:2.83465;stroke-linecap:butt;stroke-linejoin:miter;stroke-miterlimit:4;stroke-dasharray:none;stroke-opacity:1"
           id="path11145" />
      </g>
      <path
         d="m 132.07801,89.355 c 0,2.563 -2.082,4.645 -4.645,4.645 -2.566,0 -4.644,-2.082 -4.644,-4.645 0,-2.566 2.078,-4.644 4.644,-4.644 2.563,0 4.645,2.078 4.645,4.644 z"
         style="fill:#d40000;fill-opacity:1;fill-rule:nonzero;stroke:none"
         id="path11147" />
      <path
         d="m 124.10501,93.664 h 6.656 c 1.934,0 3.489,1.508 3.489,3.379 v 6.285 c 0,1.871 -1.555,3.379 -3.489,3.379 h -6.656 c -1.933,0 -3.488,-1.508 -3.488,-3.379 v -6.285 c 0,-1.871 1.555,-3.379 3.488,-3.379 z"
         style="fill:#d40000;fill-opacity:1;fill-rule:nonzero;stroke:none"
         id="path11149" />
      <path
         d="m 200.70301,10.23 c 0,2.563 -2.082,4.645 -4.645,4.645 -2.566,0 -4.644,-2.082 -4.644,-4.645 0,-2.566 2.078,-4.644 4.644,-4.644 2.563,0 4.645,2.078 4.645,4.644 z"
         style="fill:#d40000;fill-opacity:1;fill-rule:nonzero;stroke:none"
         id="path11151" />
      <path
         d="m 192.73001,14.539 h 6.656 c 1.934,0 3.489,1.508 3.489,3.379 v 6.285 c 0,1.871 -1.555,3.379 -3.489,3.379 h -6.656 c -1.933,0 -3.488,-1.508 -3.488,-3.379 v -6.285 c 0,-1.871 1.555,-3.379 3.488,-3.379 z"
         style="fill:#d40000;fill-opacity:1;fill-rule:nonzero;stroke:none"
         id="path11153" />
      <path
         d="m 240.82801,43.98 c 0,2.563 -2.082,4.645 -4.645,4.645 -2.566,0 -4.644,-2.082 -4.644,-4.645 0,-2.566 2.078,-4.644 4.644,-4.644 2.563,0 4.645,2.078 4.645,4.644 z"
         style="fill:#d40000;fill-opacity:1;fill-rule:nonzero;stroke:none"
         id="path11155" />
      <path
         d="m 232.85501,48.289 h 6.656 c 1.934,0 3.489,1.508 3.489,3.379 v 6.285 c 0,1.871 -1.555,3.379 -3.489,3.379 h -6.656 c -1.933,0 -3.488,-1.508 -3.488,-3.379 v -6.285 c 0,-1.871 1.555,-3.379 3.488,-3.379 z"
         style="fill:#d40000;fill-opacity:1;fill-rule:nonzero;stroke:none"
         id="path11157" />
      <path
         d="m 223.35501,150.574 c 0,2.563 -2.078,4.641 -4.64,4.641 -2.567,0 -4.645,-2.078 -4.645,-4.641 0,-2.566 2.078,-4.644 4.645,-4.644 2.562,0 4.64,2.078 4.64,4.644 z"
         style="fill:#80b3ff;fill-opacity:1;fill-rule:nonzero;stroke:none"
         id="path11159" />
      <path
         d="m 215.38601,154.883 h 6.657 c 1.929,0 3.488,1.504 3.488,3.375 v 6.289 c 0,1.871 -1.559,3.375 -3.488,3.375 h -6.657 c -1.933,0 -3.488,-1.504 -3.488,-3.375 v -6.289 c 0,-1.871 1.555,-3.375 3.488,-3.375 z"
         style="fill:#80b3ff;fill-opacity:1;fill-rule:nonzero;stroke:none"
         id="path11161" />
      <path
         d="m 122.10501,151.324 c 0,2.563 -2.078,4.641 -4.64,4.641 -2.567,0 -4.645,-2.078 -4.645,-4.641 0,-2.566 2.078,-4.644 4.645,-4.644 2.562,0 4.64,2.078 4.64,4.644 z"
         style="fill:#80b3ff;fill-opacity:1;fill-rule:nonzero;stroke:none"
         id="path11163" />
      <path
         d="m 114.13601,155.633 h 6.657 c 1.929,0 3.488,1.504 3.488,3.375 v 6.289 c 0,1.871 -1.559,3.375 -3.488,3.375 h -6.657 c -1.933,0 -3.488,-1.504 -3.488,-3.375 v -6.289 c 0,-1.871 1.555,-3.375 3.488,-3.375 z"
         style="fill:#80b3ff;fill-opacity:1;fill-rule:nonzero;stroke:none"
         id="path11165" />
      <path
         d="m 29.105006,146.824 c 0,2.563 -2.078,4.641 -4.64,4.641 -2.567,0 -4.645,-2.078 -4.645,-4.641 0,-2.566 2.078,-4.644 4.645,-4.644 2.562,0 4.64,2.078 4.64,4.644 z"
         style="fill:#80b3ff;fill-opacity:1;fill-rule:nonzero;stroke:none"
         id="path11167" />
      <path
         d="m 21.136006,151.133 h 6.657 c 1.929,0 3.488,1.504 3.488,3.375 v 6.289 c 0,1.871 -1.559,3.375 -3.488,3.375 h -6.657 c -1.933,0 -3.488,-1.504 -3.488,-3.375 v -6.289 c 0,-1.871 1.555,-3.375 3.488,-3.375 z"
         style="fill:#80b3ff;fill-opacity:1;fill-rule:nonzero;stroke:none"
         id="path11169" />
      <path
         d="m 26.480006,94.699 c 0,2.563 -2.078,4.641 -4.64,4.641 -2.567,0 -4.645,-2.078 -4.645,-4.641 0,-2.566 2.078,-4.644 4.645,-4.644 2.562,0 4.64,2.078 4.64,4.644 z"
         style="fill:#80b3ff;fill-opacity:1;fill-rule:nonzero;stroke:none"
         id="path11171" />
      <path
         d="m 18.511006,99.008 h 6.657 c 1.929,0 3.488,1.504 3.488,3.375 v 6.289 c 0,1.871 -1.559,3.375 -3.488,3.375 h -6.657 c -1.933,0 -3.488,-1.504 -3.488,-3.375 v -6.289 c 0,-1.871 1.555,-3.375 3.488,-3.375 z"
         style="fill:#80b3ff;fill-opacity:1;fill-rule:nonzero;stroke:none"
         id="path11173" />
      <g
         id="g11175"
         transform="translate(-261.59399,1.5)">
        <path
           d="M 312.563,116.25 295.5,110.062"
           style="fill:none;stroke:#000000;stroke-width:2.83465;stroke-linecap:butt;stroke-linejoin:miter;stroke-miterlimit:4;stroke-dasharray:none;stroke-opacity:1"
           id="path11177" />
      </g>
      <g
         id="g11179"
         transform="translate(-261.59399,1.5)">
        <path
           d="M 316.313,136.688 297.188,147"
           style="fill:none;stroke:#000000;stroke-width:2.83465;stroke-linecap:butt;stroke-linejoin:miter;stroke-miterlimit:4;stroke-dasharray:none;stroke-opacity:1"
           id="path11181" />
      </g>
      <g
         id="g11183"
         transform="translate(-261.59399,1.5)">
        <path
           d="m 344.625,138 19.5,10.5"
           style="fill:none;stroke:#000000;stroke-width:2.83465;stroke-linecap:butt;stroke-linejoin:miter;stroke-miterlimit:4;stroke-dasharray:none;stroke-opacity:1"
           id="path11185" />
      </g>
      <g
         id="g11187"
         transform="translate(-261.59399,1.5)">
        <path
           d="m 393.75,149.625 15.75,-5.25"
           style="fill:none;stroke:#000000;stroke-width:2.83465;stroke-linecap:butt;stroke-linejoin:miter;stroke-miterlimit:4;stroke-dasharray:none;stroke-opacity:1"
           id="path11189" />
      </g>
      <g
         id="g11191"
         transform="translate(-261.59399,1.5)">
        <path
           d="M 442.5,124.125 486.375,66.75"
           style="fill:none;stroke:#000000;stroke-width:2.83465;stroke-linecap:butt;stroke-linejoin:miter;stroke-miterlimit:4;stroke-dasharray:none;stroke-opacity:1"
           id="path11193" />
      </g>
      <g
         id="g11195"
         transform="translate(-261.59399,1.5)">
        <path
           d="m 400.125,110.625 11.25,13.875"
           style="fill:none;stroke:#000000;stroke-width:2.83465;stroke-linecap:butt;stroke-linejoin:miter;stroke-miterlimit:4;stroke-dasharray:none;stroke-opacity:1"
           id="path11197" />
      </g>
      <g
         id="g11199"
         transform="translate(-261.59399,1.5)">
        <path
           d="M 455.25,33.375 450,46.875"
           style="fill:none;stroke:#000000;stroke-width:2.83465;stroke-linecap:butt;stroke-linejoin:miter;stroke-miterlimit:4;stroke-dasharray:none;stroke-opacity:1"
           id="path11201" />
      </g>
      <g
         id="g11203"
         transform="translate(-261.59399,1.5)">
        <path
           d="M 484.875,55.5 461.25,63"
           style="fill:none;stroke:#000000;stroke-width:2.83465;stroke-linecap:butt;stroke-linejoin:miter;stroke-miterlimit:4;stroke-dasharray:none;stroke-opacity:1"
           id="path11205" />
      </g>
      <g
         id="g11207"
         transform="translate(-261.59399,1.5)">
        <path
           d="m 330.938,108.938 1.546,-25.782"
           style="fill:none;stroke:#000000;stroke-width:2.83465;stroke-linecap:butt;stroke-linejoin:miter;stroke-miterlimit:4;stroke-dasharray:none;stroke-opacity:1"
           id="path11209" />
      </g>
      <g
         id="g11211"
         transform="translate(-261.59399,1.5)">
        <path
           d="m 335.438,35.25 -1.266,20.766"
           style="fill:none;stroke:#000000;stroke-width:2.83465;stroke-linecap:butt;stroke-linejoin:miter;stroke-miterlimit:4;stroke-dasharray:none;stroke-opacity:1"
           id="path11213" />
      </g>
      <g
         id="g11215"
         transform="translate(-261.59399,1.5)">
        <path
           d="m 352.594,27.281 30.773,12.188"
           style="fill:none;stroke:#000000;stroke-width:2.83465;stroke-linecap:butt;stroke-linejoin:miter;stroke-miterlimit:4;stroke-dasharray:none;stroke-opacity:1"
           id="path11217" />
      </g>
      <g
         id="g11219"
         transform="translate(-261.59399,1.5)">
        <path
           d="M 426.844,56.719 401.027,46.438"
           style="fill:none;stroke:#000000;stroke-width:2.83465;stroke-linecap:butt;stroke-linejoin:miter;stroke-miterlimit:4;stroke-dasharray:none;stroke-opacity:1"
           id="path11221" />
      </g>
      <g
         id="g11223"
         transform="translate(-261.59399,1.5)">
        <path
           d="M 344.98,114.684 377.859,98.723"
           style="fill:none;stroke:#000000;stroke-width:2.83465;stroke-linecap:butt;stroke-linejoin:miter;stroke-miterlimit:4;stroke-dasharray:none;stroke-opacity:1"
           id="path11225" />
      </g>
      <g
         id="g11227"
         transform="translate(-261.59399,1.5)">
        <path
           d="M 426.781,74.91 397.055,89.355"
           style="fill:none;stroke:#000000;stroke-width:2.83465;stroke-linecap:butt;stroke-linejoin:miter;stroke-miterlimit:4;stroke-dasharray:none;stroke-opacity:1"
           id="path11229" />
      </g>
      <g
         id="g11231"
         transform="translate(-261.59399,1.5)">
        <path
           d="M 440.813,144.938 468.188,153"
           style="fill:none;stroke:#000000;stroke-width:2.83465;stroke-linecap:butt;stroke-linejoin:miter;stroke-miterlimit:4;stroke-dasharray:none;stroke-opacity:1"
           id="path11233" />
      </g>
    </g>
  </g>
</svg>
